<mxfile host="app.diagrams.net" modified="2023-08-11T12:55:24.632Z" agent="Mozilla/5.0 (Windows NT 10.0; Win64; x64) AppleWebKit/537.36 (KHTML, like Gecko) Chrome/115.0.0.0 Safari/537.36 Edg/115.0.1901.188" version="21.6.8" etag="jfMyv4bCXkwtY3gNDhPk" type="github">
  <diagram name="Page-1" id="XDIr9KLXrxnRAFbbXiK4">
    <mxGraphModel>
      <root>
        <mxCell id="0" />
        <mxCell id="1" parent="0" />
      </root>
    </mxGraphModel>
  </diagram>
</mxfile>
